# xmcd CD database file
#
# Track frame offsets:
#	150
#	20870
#	38810
#
# Disc length: 745 seconds
#
# Revision: 0
# Processed by: cddbd v1.5PL3 Copyright (c) Steve Scherf et al.
# Submitted via: CDex 1.51
#
DISCID=2002e703
DTITLE=太陽の塔 - サボテンに吹く風
DYEAR=1900
DGENRE=J-Pop
TTITLE0=サボテンに吹く風
TTITLE1=約束の歌
TTITLE2=THE WEIGHT
EXTD=
EXTT0=
EXTT1=
EXTT2=
PLAYORDER=
